<svg width="328" height="73" viewBox="0 0 328 73" fill="none" xmlns="http://www.w3.org/2000/svg">
<path d="M155.001 35.9999C155.001 55.8821 138.883 71.9999 119.001 71.9999C99.1184 71.9999 83.0007 55.8821 83.0007 35.9999C83.0007 29.7292 83.0004 16.5467 83.0002 7.99296C83.0001 3.57462 86.574 -4.20592e-05 90.9923 -5.63599e-05C99.4509 -8.37375e-05 112.462 -0.00012207 119.001 -0.00012207C125.54 -0.00012207 138.55 -8.37374e-05 147.009 -5.63598e-05C151.427 -4.20591e-05 155.001 3.5745 155.001 7.99277C155.001 16.5465 155.001 29.7291 155.001 35.9999Z" fill="#FF8190"/>
<path d="M255.999 35.9999C255.999 16.1177 272.117 -6.59206e-05 291.999 -6.41824e-05C311.882 -6.24443e-05 327.999 16.1177 327.999 35.9999C327.999 42.2706 328 55.4531 328 64.0069C328 68.4252 324.426 71.9999 320.008 71.9999C311.549 71.9999 298.538 71.9999 291.999 71.9999C285.46 71.9999 272.45 71.9999 263.991 71.9999C259.573 71.9999 255.999 68.4253 255.999 64.007C255.999 55.4533 255.999 42.2707 255.999 35.9999Z" fill="#FFC27C"/>
<path d="M195.571 4C198.651 -1.33334 206.349 -1.33333 209.428 4L241.904 60.25C244.983 65.5833 241.134 72.25 234.976 72.25H170.024C163.865 72.25 160.016 65.5833 163.095 60.25L195.571 4Z" fill="#68D1A5"/>
<path d="M45 1.68522e-06C59.9117 1.03341e-06 72 12.0882 72 26.9998C72 41.9113 59.9117 53.9995 45 53.9995C37.7165 53.9995 18.0001 54 18.0001 54C18.0001 54 18 34.6279 18 26.9998C18 19.3716 18.0001 2.86543e-06 18.0001 2.86543e-06C18.0001 2.86543e-06 37.7165 2.00359e-06 45 1.68522e-06Z" fill="#807EF8"/>
<path d="M0 8C0 3.58172 3.58172 0 8 0H36V64C36 68.4183 32.4183 72 28 72H8C3.58172 72 0 68.4183 0 64V8Z" fill="#807EF8"/>
</svg>
